<svg width="167" height="67" viewBox="0 0 167 67" fill="none" xmlns="http://www.w3.org/2000/svg">
<path d="M23.8879 28.6422C23.8879 28.2765 23.8317 27.9484 23.7192 27.6578C23.6161 27.3578 23.4192 27.0859 23.1286 26.8422C22.8379 26.589 22.4301 26.3406 21.9051 26.0968C21.3801 25.8531 20.7004 25.6 19.8661 25.3375C18.9379 25.0375 18.0567 24.7 17.2223 24.325C16.3973 23.95 15.666 23.514 15.0285 23.0171C14.4004 22.5109 13.9035 21.9249 13.5379 21.2593C13.1816 20.5937 13.0035 19.8203 13.0035 18.939C13.0035 18.0859 13.191 17.3124 13.566 16.6187C13.941 15.9155 14.466 15.3155 15.141 14.8187C15.816 14.3124 16.6129 13.9234 17.5317 13.6515C18.4598 13.3796 19.477 13.2437 20.5832 13.2437C22.0926 13.2437 23.4098 13.5155 24.5348 14.0593C25.6598 14.603 26.5317 15.3484 27.1505 16.2952C27.7786 17.2421 28.0926 18.3249 28.0926 19.5437H23.902C23.902 18.9437 23.7754 18.4187 23.5223 17.9687C23.2786 17.5093 22.9036 17.1484 22.3973 16.8859C21.9004 16.6234 21.2723 16.4921 20.5129 16.4921C19.7817 16.4921 19.1723 16.6046 18.6848 16.8296C18.1973 17.0452 17.8317 17.3406 17.5879 17.7156C17.3442 18.0812 17.2223 18.4937 17.2223 18.9531C17.2223 19.2999 17.3067 19.614 17.4754 19.8953C17.6535 20.1765 17.916 20.439 18.2629 20.6828C18.6098 20.9265 19.0364 21.1562 19.5426 21.3718C20.0489 21.5874 20.6348 21.7984 21.3004 22.0046C22.4161 22.3421 23.3958 22.7218 24.2395 23.1437C25.0926 23.5656 25.8051 24.039 26.377 24.564C26.9489 25.089 27.3801 25.6843 27.6708 26.35C27.9614 27.0156 28.1067 27.7703 28.1067 28.614C28.1067 29.5047 27.9333 30.3015 27.5864 31.0047C27.2395 31.7078 26.738 32.3031 26.0817 32.7906C25.4255 33.2781 24.6426 33.6484 23.7333 33.9016C22.8239 34.1547 21.8067 34.2813 20.6817 34.2813C19.6692 34.2813 18.6707 34.15 17.6864 33.8875C16.702 33.6156 15.8067 33.2078 15.0004 32.6641C14.2035 32.1203 13.566 31.4266 13.0879 30.5828C12.6098 29.739 12.3707 28.7406 12.3707 27.5875H16.6035C16.6035 28.225 16.702 28.764 16.8989 29.2047C17.0957 29.6453 17.3723 30.0015 17.7285 30.2734C18.0942 30.5453 18.5254 30.7422 19.0223 30.864C19.5286 30.9859 20.0817 31.0469 20.6817 31.0469C21.4129 31.0469 22.0129 30.9437 22.4817 30.7375C22.9598 30.5312 23.3114 30.2453 23.5364 29.8797C23.7708 29.514 23.8879 29.1015 23.8879 28.6422ZM42.8443 27.2078H47.049C46.9646 28.5859 46.5849 29.8094 45.9099 30.8781C45.2443 31.9469 44.3115 32.7812 43.1115 33.3812C41.9208 33.9812 40.4865 34.2813 38.8083 34.2813C37.4958 34.2813 36.3192 34.0563 35.2786 33.6062C34.238 33.1469 33.3474 32.4906 32.6067 31.6375C31.8755 30.7844 31.3177 29.7531 30.9333 28.5437C30.5489 27.3343 30.3567 25.9797 30.3567 24.4796V23.0593C30.3567 21.5593 30.5536 20.2046 30.9473 18.9952C31.3505 17.7765 31.9224 16.7406 32.663 15.8874C33.413 15.0343 34.3083 14.378 35.3489 13.9187C36.3896 13.4593 37.5521 13.2296 38.8364 13.2296C40.5427 13.2296 41.9818 13.539 43.1537 14.1577C44.3349 14.7765 45.249 15.6296 45.8958 16.7171C46.5521 17.8046 46.9459 19.0421 47.0771 20.4296H42.8583C42.8115 19.6046 42.6474 18.9062 42.3661 18.3343C42.0849 17.7531 41.6583 17.3171 41.0865 17.0265C40.524 16.7265 39.7739 16.5765 38.8364 16.5765C38.1333 16.5765 37.5193 16.7077 36.9942 16.9702C36.4692 17.2327 36.0286 17.6312 35.6724 18.1656C35.3161 18.6999 35.0489 19.3749 34.8708 20.1906C34.7021 20.9968 34.6177 21.9437 34.6177 23.0312V24.4796C34.6177 25.539 34.6974 26.4718 34.8567 27.2781C35.0161 28.075 35.2599 28.75 35.588 29.3031C35.9255 29.8469 36.3567 30.2594 36.8817 30.5406C37.4161 30.8125 38.0583 30.9484 38.8083 30.9484C39.6896 30.9484 40.4161 30.8078 40.988 30.5265C41.5599 30.2453 41.9958 29.8281 42.2958 29.275C42.6052 28.7219 42.788 28.0328 42.8443 27.2078ZM58.1443 17.0265L52.5756 34H48.0896L55.6975 13.5249H58.5522L58.1443 17.0265ZM62.7709 34L57.1881 17.0265L56.7381 13.5249H59.6209L67.2709 34H62.7709ZM62.5178 26.3781V29.6828H51.7037V26.3781H62.5178ZM85.8335 13.5249V34H81.6148L73.3882 20.2749V34H69.1694V13.5249H73.3882L81.6288 27.264V13.5249H85.8335ZM109.838 30.7094V34H99.5305V30.7094H109.838ZM100.895 13.5249V34H96.6758V13.5249H100.895ZM116.743 13.5249V34H112.538V13.5249H116.743ZM129.427 13.5249V34H125.223V13.5249H129.427ZM135.727 13.5249V16.8296H119.021V13.5249H135.727ZM151.871 30.7094V34H140.973V30.7094H151.871ZM142.351 13.5249V34H138.132V13.5249H142.351ZM150.451 21.864V25.0703H140.973V21.864H150.451ZM151.857 13.5249V16.8296H140.973V13.5249H151.857Z" fill="white"/>
<path d="M13.6421 50.1127V57.9587H12.2895V50.1127H13.6421ZM28.1691 50.1127V57.9587H26.8165L23.2976 52.3383V57.9587H21.9451V50.1127H23.2976L26.8273 55.744V50.1127H28.1691ZM39.4682 50.1127V57.9587H38.1264V50.1127H39.4682ZM41.9308 50.1127V51.1905H35.6853V50.1127H41.9308ZM54.7226 56.8864V57.9587H50.5571V56.8864H54.7226ZM50.9397 50.1127V57.9587H49.5871V50.1127H50.9397ZM54.1783 53.3891V54.4453H50.5571V53.3891H54.1783ZM54.6957 50.1127V51.1905H50.5571V50.1127H54.6957ZM68.4736 53.9495V56.9457C68.3622 57.0929 68.188 57.2546 67.9509 57.4306C67.7174 57.6031 67.4066 57.7522 67.0186 57.8779C66.6306 58.0036 66.1474 58.0665 65.5691 58.0665C65.0769 58.0665 64.626 57.9839 64.2165 57.8186C63.8069 57.6498 63.4531 57.4037 63.1549 57.0804C62.8603 56.7571 62.6322 56.3637 62.4705 55.9002C62.3089 55.4332 62.228 54.9015 62.228 54.3052V53.7609C62.228 53.1682 62.3017 52.6401 62.449 52.1766C62.5999 51.7096 62.8154 51.3144 63.0956 50.9911C63.3758 50.6678 63.7135 50.4235 64.1087 50.2582C64.5075 50.0894 64.9583 50.005 65.4613 50.005C66.1043 50.005 66.636 50.1127 67.0563 50.3283C67.4803 50.5402 67.8072 50.8348 68.0371 51.212C68.267 51.5893 68.4125 52.0204 68.4736 52.5053H67.148C67.1048 52.2323 67.0204 51.988 66.8947 51.7725C66.7725 51.5569 66.5965 51.3881 66.3666 51.2659C66.1403 51.1402 65.8457 51.0773 65.4828 51.0773C65.1703 51.0773 64.8955 51.1366 64.6584 51.2552C64.4213 51.3737 64.2237 51.5479 64.0656 51.7779C63.9111 52.0078 63.7944 52.288 63.7153 52.6185C63.6363 52.949 63.5968 53.3262 63.5968 53.7501V54.3052C63.5968 54.7363 63.6417 55.1189 63.7315 55.453C63.8249 55.7871 63.9578 56.0691 64.1303 56.299C64.3063 56.5289 64.52 56.7032 64.7715 56.8217C65.023 56.9367 65.3068 56.9942 65.6229 56.9942C65.9319 56.9942 66.1852 56.969 66.3828 56.9187C66.5803 56.8648 66.7366 56.802 66.8516 56.7301C66.9701 56.6547 67.0617 56.5828 67.1264 56.5146V54.9572H65.4936V53.9495H68.4736ZM76.5933 50.1127H79.3685C79.9649 50.1127 80.4732 50.2026 80.8935 50.3822C81.3139 50.5618 81.6354 50.8276 81.8581 51.1797C82.0845 51.5282 82.1976 51.9593 82.1976 52.473C82.1976 52.8646 82.1258 53.2095 81.9821 53.5076C81.8384 53.8058 81.6354 54.0573 81.3731 54.2621C81.1109 54.4632 80.7983 54.6195 80.4355 54.7309L80.026 54.9303H77.531L77.5202 53.8579H79.3901C79.7134 53.8579 79.9828 53.8004 80.1984 53.6855C80.4139 53.5705 80.5756 53.4142 80.6834 53.2167C80.7948 53.0155 80.8504 52.7891 80.8504 52.5377C80.8504 52.2646 80.7965 52.0275 80.6888 51.8264C80.5846 51.6216 80.4229 51.4653 80.2038 51.3575C79.9846 51.2462 79.7062 51.1905 79.3685 51.1905H77.9459V57.9587H76.5933V50.1127ZM81.0714 57.9587L79.2284 54.4345L80.6457 54.4291L82.5156 57.8887V57.9587H81.0714ZM93.2219 51.1582L90.8778 57.9587H89.4606L92.4136 50.1127H93.3189L93.2219 51.1582ZM95.1834 57.9587L92.8339 51.1582L92.7315 50.1127H93.6422L96.606 57.9587H95.1834ZM95.0702 55.0488V56.1212H90.8024V55.0488H95.0702ZM106.655 50.1127V57.9587H105.313V50.1127H106.655ZM109.118 50.1127V51.1905H102.872V50.1127H109.118ZM118.218 50.1127V57.9587H116.866V50.1127H118.218ZM132.777 53.8202V54.2513C132.777 54.8441 132.7 55.3757 132.546 55.8464C132.391 56.317 132.17 56.7175 131.883 57.048C131.599 57.3786 131.258 57.6318 130.859 57.8079C130.46 57.9803 130.018 58.0665 129.533 58.0665C129.052 58.0665 128.612 57.9803 128.213 57.8079C127.818 57.6318 127.475 57.3786 127.184 57.048C126.893 56.7175 126.667 56.317 126.505 55.8464C126.347 55.3757 126.268 54.8441 126.268 54.2513V53.8202C126.268 53.2274 126.347 52.6975 126.505 52.2305C126.663 51.7599 126.886 51.3593 127.173 51.0288C127.464 50.6947 127.807 50.4415 128.202 50.269C128.601 50.093 129.041 50.005 129.523 50.005C130.008 50.005 130.449 50.093 130.848 50.269C131.247 50.4415 131.59 50.6947 131.877 51.0288C132.165 51.3593 132.386 51.7599 132.54 52.2305C132.698 52.6975 132.777 53.2274 132.777 53.8202ZM131.425 54.2513V53.8094C131.425 53.3711 131.382 52.9849 131.295 52.6508C131.213 52.3131 131.089 52.0311 130.924 51.8048C130.762 51.5749 130.563 51.4024 130.326 51.2875C130.088 51.1689 129.821 51.1097 129.523 51.1097C129.224 51.1097 128.959 51.1689 128.725 51.2875C128.492 51.4024 128.292 51.5749 128.127 51.8048C127.965 52.0311 127.841 52.3131 127.755 52.6508C127.669 52.9849 127.626 53.3711 127.626 53.8094V54.2513C127.626 54.6896 127.669 55.0776 127.755 55.4153C127.841 55.753 127.967 56.0386 128.132 56.2721C128.301 56.502 128.502 56.6762 128.736 56.7948C128.969 56.9097 129.235 56.9672 129.533 56.9672C129.835 56.9672 130.103 56.9097 130.336 56.7948C130.57 56.6762 130.767 56.502 130.929 56.2721C131.091 56.0386 131.213 55.753 131.295 55.4153C131.382 55.0776 131.425 54.6896 131.425 54.2513ZM146.976 50.1127V57.9587H145.623L142.104 52.3383V57.9587H140.752V50.1127H142.104L145.634 55.744V50.1127H146.976Z" fill="white"/>
</svg>
