<svg width="167" height="67" viewBox="0 0 167 67" fill="none" xmlns="http://www.w3.org/2000/svg">
<g clip-path="url(#clip0_242_547)">
<path d="M51.2658 12.2388H43.6123V17.6635H51.2658V54.6675H56.6906V12.2388H51.2658Z" fill="white"/>
<path d="M56.6898 12.0979H43.4707V17.8048H51.1238V54.8088H56.8307V12.0979H56.6898ZM56.5485 54.5263H51.406V17.5227H43.7529V12.3801H56.5485V54.5263Z" fill="white"/>
<path d="M43.2254 20.957H37.7998V26.3818H43.2254V54.6675H48.6502V20.957H43.2254Z" fill="white"/>
<path d="M82.2055 20.8235C79.7679 20.8235 70.6221 23.0018 70.6221 33.0655C70.6221 38.9305 74.3874 42.4263 77.3144 43.9744C79.0991 44.8688 81.2533 44.8229 81.2533 44.8229H130.62V38.9374H81.7022C80.9613 38.9374 79.9412 38.7638 79.2859 38.3096C78.0532 37.457 76.5055 35.8634 76.5055 33.0655C76.5055 27.3413 81.9663 26.7381 82.2436 26.7114C83.0045 26.7155 85.2889 26.8544 86.7919 28.3557C87.8883 29.4509 88.4444 31.1656 88.4444 33.4529H94.3295C94.3295 29.5471 93.1931 26.4313 90.9516 24.192C87.9047 21.1466 84.1725 20.8235 82.2055 20.8235Z" fill="white"/>
<path d="M81.7028 38.7964C81.0267 38.7964 80.0098 38.6383 79.3685 38.1935C78.128 37.3335 76.6491 35.749 76.6491 33.0653C76.6491 27.4546 82.0305 26.8739 82.2598 26.8517C83.1055 26.8571 85.2605 27.0221 86.6951 28.4555C87.764 29.5232 88.3059 31.2047 88.3059 33.4519V33.5928H94.4723V33.4519C94.4723 29.5076 93.3219 26.3582 91.0531 24.0914C88.7842 21.8246 85.8109 20.6816 82.207 20.6816C81.039 20.6816 78.1181 21.1772 75.4205 23.0537C73.1668 24.6222 70.4814 27.6303 70.4814 33.0653C70.4814 39.982 75.6617 43.2591 77.2491 44.0991C79.047 45.0001 81.1676 44.9657 81.2573 44.9637H130.762V38.7964H81.7028ZM130.479 44.6815H81.2523C81.2282 44.6815 79.108 44.7155 77.3769 43.8481C75.8272 43.029 70.762 39.8243 70.762 33.0653C70.762 27.7523 73.383 24.8147 75.5794 23.2863C78.028 21.5826 80.8829 20.9642 82.2045 20.9642C85.7327 20.9642 88.6421 22.0839 90.852 24.2917C93.0385 26.4762 94.1557 29.5125 94.1836 33.3114H88.5831C88.5598 31.0589 87.9942 29.3549 86.8938 28.2556C85.385 26.7485 83.1411 26.5765 82.2463 26.5704C81.9924 26.5941 76.3665 27.2011 76.3665 33.0653C76.3665 35.8715 77.9117 37.5293 79.2075 38.4253C79.9037 38.907 80.9522 39.0806 81.7033 39.0806H130.479V44.6815ZM113.624 14.0561H114.771C115.04 14.0561 115.237 14.1118 115.362 14.2228C115.422 14.2756 115.47 14.3411 115.503 14.4146C115.535 14.4882 115.551 14.568 115.548 14.6483C115.549 14.7646 115.515 14.8785 115.452 14.9759C115.385 15.078 115.285 15.1548 115.17 15.1942C115.046 15.2401 114.874 15.263 114.655 15.263H113.623L113.624 14.0561ZM113.624 17.2968V15.6787H114.179C114.269 15.6762 114.359 15.6819 114.447 15.6959C114.525 15.7159 114.599 15.749 114.666 15.7938C114.759 15.8616 114.842 15.9439 114.91 16.0374C115 16.1529 115.116 16.32 115.256 16.5383L115.737 17.2951H116.338L115.71 16.3053C115.599 16.1271 115.465 15.9642 115.312 15.8208C115.224 15.7475 115.126 15.6866 115.022 15.6398C115.369 15.5914 115.626 15.4787 115.793 15.3015C115.876 15.2141 115.94 15.1112 115.983 14.9988C116.026 14.8864 116.047 14.7666 116.044 14.6462C116.046 14.4529 115.994 14.2627 115.895 14.097C115.803 13.9391 115.661 13.8168 115.491 13.7497C115.322 13.6845 115.076 13.6519 114.754 13.6519H113.146V17.2968H113.624Z" fill="white"/>
<path d="M111.066 15.5482C111.066 16.2419 111.272 16.92 111.657 17.4968C112.043 18.0736 112.59 18.5231 113.231 18.7886C113.872 19.054 114.577 19.1235 115.258 18.9881C115.938 18.8527 116.563 18.5187 117.053 18.0281C117.544 17.5375 117.878 16.9126 118.013 16.2322C118.148 15.5518 118.079 14.8467 117.813 14.2059C117.547 13.5651 117.098 13.0174 116.521 12.6322C115.944 12.247 115.266 12.0415 114.572 12.0417C113.643 12.043 112.752 12.4129 112.094 13.0703C111.437 13.7276 111.067 14.6187 111.066 15.5482ZM111.561 15.5482C111.561 14.9526 111.738 14.3704 112.069 13.8752C112.4 13.3801 112.871 12.9943 113.421 12.7665C113.972 12.5388 114.577 12.4794 115.162 12.5958C115.746 12.7122 116.282 12.9992 116.703 13.4205C117.124 13.8419 117.411 14.3786 117.527 14.9628C117.643 15.5471 117.583 16.1526 117.355 16.7029C117.127 17.2531 116.741 17.7233 116.245 18.0541C115.75 18.3849 115.168 18.5614 114.572 18.5612C113.773 18.5603 113.008 18.2426 112.443 17.6777C111.878 17.1128 111.561 16.3469 111.56 15.5482H111.561Z" fill="white"/>
<path d="M79.849 47.9465C78.1547 47.7204 67.4784 45.7661 67.4784 32.581C67.4784 18.062 82.3755 17.8314 83.2314 17.8314C84.2118 17.8314 97.1619 18.3257 97.3302 33.4521H103.215C103.051 15.9647 88.39 12.0085 83.2298 12.0085C77.2124 12.0085 61.5938 15.7042 61.5938 32.581C61.5938 47.8482 73.1948 53.146 79.3293 53.814L79.4857 53.8312L130.789 53.9131L130.799 48.0276L79.849 47.9465Z" fill="white"/>
</g>
<defs>
<clipPath id="clip0_242_547">
<rect width="93" height="42.8172" fill="white" transform="translate(37.7998 12)"/>
</clipPath>
</defs>
</svg>
