<svg width="161" height="71" viewBox="0 0 161 71" fill="none" xmlns="http://www.w3.org/2000/svg">
<g clip-path="url(#clip0_242_579)">
<path d="M15.8408 16.3933V30.4858L19.8349 23.6743H29.7252L29.938 23.6727L29.7252 24.0695L15.8408 47.7373V52.0207L35.4392 18.5019H45.3198L22.4203 57.6529H22.4526L20.6844 60.6698H12.8267V13.3779H48.0792L46.3094 16.3933H15.8408Z" fill="white"/>
<path d="M59.7314 20.7988V60.9256H35.6777L37.4589 57.9063H56.6842V25.9557L59.7314 20.7988Z" fill="white"/>
<path d="M63.2319 9.81885L61.338 13.0488L59.7745 15.6769L34.7571 58.3321L33.3854 60.6698H23.5L53.3465 9.81885H63.2319Z" fill="white"/>
<path d="M69.4595 25.1033C69.4595 21.6588 72.1013 19.1936 75.657 19.1936C77.6315 19.1936 79.2788 19.9115 80.3555 21.2183L78.6583 22.7785C78.3098 22.3551 77.8712 22.015 77.3745 21.7833C76.8778 21.5516 76.3356 21.4341 75.7876 21.4394C73.6519 21.4394 72.1351 22.9414 72.1351 25.0968C72.1351 27.2522 73.6519 28.7543 75.7876 28.7543C76.3373 28.7605 76.8813 28.6418 77.3786 28.407C77.8758 28.1723 78.3134 27.8276 78.6583 27.3991L80.3555 28.9672C79.2788 30.295 77.6267 31.0065 75.6409 31.0065C72.1013 31.0065 69.4595 28.5478 69.4595 25.1033Z" fill="white"/>
<path d="M90.6974 21.5442H87.0434V30.8177H84.4338V21.5442H80.7959V19.3904H90.6974V21.5442Z" fill="white"/>
<path d="M99.5221 28.3686H94.2288L93.2182 30.8177H90.5103L95.5924 19.3904H98.202L103.307 30.8193H100.534L99.5221 28.3686ZM98.6904 26.36L96.8803 21.9846L95.0702 26.36H98.6904Z" fill="white"/>
<path d="M112.981 21.5442H109.327V30.8177H106.718V21.5442H103.08V19.3904H112.981V21.5442Z" fill="white"/>
<path d="M124.464 19.3904L119.603 28.4364C118.656 30.1982 117.302 31.0807 115.77 31.0807C115.13 31.0717 114.499 30.9369 113.911 30.6838L114.546 28.6752C114.915 28.8019 115.3 28.8737 115.689 28.8881C116.334 28.8881 116.846 28.5945 117.286 27.9088L117.385 27.7781L112.883 19.3904H115.705L118.739 25.5211L121.87 19.3904H124.464Z" fill="white"/>
<path d="M124.807 25.1033C124.807 21.6588 127.449 19.1936 131.005 19.1936C132.979 19.1936 134.626 19.9115 135.703 21.2183L134.006 22.7785C133.657 22.3569 133.219 22.0185 132.723 21.7879C132.228 21.5574 131.687 21.4405 131.14 21.4458C129.004 21.4458 127.488 22.9479 127.488 25.1033C127.488 27.2587 129.004 28.7607 131.14 28.7607C131.69 28.767 132.234 28.6482 132.731 28.4135C133.228 28.1787 133.666 27.8341 134.011 27.4055L135.708 28.9737C134.631 30.295 132.984 31.013 130.993 31.013C127.449 31.0065 124.807 28.5478 124.807 25.1033Z" fill="white"/>
<path d="M77.7879 46.4107V47.6513H75.3702V46.3945C71.5017 46.1654 69.3838 44.3859 69.3838 41.3932C69.3838 38.4004 71.505 36.6257 75.3702 36.3918V35.2173H77.7879V36.3757C81.637 36.6048 83.7517 38.4004 83.7517 41.3883C83.7517 44.3762 81.6563 46.2138 77.7879 46.4107ZM75.3702 44.3359V38.4762C73.054 38.6876 71.945 39.6185 71.945 41.398C71.945 43.1775 73.1619 44.1084 75.3702 44.3359ZM81.226 41.3819C81.226 39.6185 80.0687 38.6715 77.8008 38.4779V44.3375C80.0945 44.1246 81.2195 43.1614 81.2195 41.3819H81.226Z" fill="white"/>
<path d="M85.7393 35.7173H88.3649V43.1613L93.8129 35.7173H96.2919V47.1398H93.6824V39.7184L88.2344 47.1398H85.7393V35.7173Z" fill="white"/>
<path d="M109.604 35.7173V47.1398H106.962V42.4611H101.774V47.1398H99.1318V35.7173H101.774V40.2217H106.962V35.7173H109.604Z" fill="white"/>
<path d="M120.189 44.6957H114.887L113.877 47.14H111.169L116.259 35.7126H118.869L123.973 47.14H121.201L120.189 44.6957ZM119.357 42.6871L117.547 38.3117L115.737 42.6871H119.357Z" fill="white"/>
<path d="M135.963 35.7173V47.1398H133.321V42.4611H128.134V47.1398H125.499V35.7173H128.14V40.2217H133.327V35.7173H135.963Z" fill="white"/>
<path d="M138.035 41.4304C138.035 37.9859 140.677 35.5208 144.233 35.5208C146.207 35.5208 147.854 36.2387 148.931 37.5455L147.234 39.1121C146.886 38.6887 146.447 38.3486 145.95 38.1169C145.453 37.8852 144.911 37.7677 144.363 37.773C142.228 37.773 140.711 39.275 140.711 41.4304C140.711 43.5859 142.228 45.0879 144.363 45.0879C144.913 45.0941 145.457 44.9754 145.954 44.7406C146.452 44.5059 146.889 44.1613 147.234 43.7327L148.931 45.3008C147.854 46.6222 146.207 47.3417 144.217 47.3417C140.677 47.3417 138.035 44.8814 138.035 41.4304Z" fill="white"/>
<path d="M69.7534 53.2141H70.4858V55.3459L72.0029 53.2174H72.6925V56.486H71.9664V54.3688L70.4493 56.486H69.7534V53.2141Z" fill="white"/>
<path d="M76.4003 53.2141V56.486H75.6647V55.1456H74.2126V56.486H73.4834V53.2141H74.2126V54.5023H75.6584V53.2141H76.4003Z" fill="white"/>
<path d="M79.9976 55.5609C79.9976 56.1309 79.5664 56.4811 78.7626 56.4811H77.1948V53.2141H78.677C79.4126 53.2141 79.8485 53.517 79.8485 54.0594C79.8513 54.2114 79.8099 54.3609 79.7298 54.4888C79.6496 54.6167 79.5342 54.7172 79.3983 54.7776C79.5722 54.8144 79.7277 54.9133 79.8374 55.0566C79.9471 55.2 80.0038 55.3787 79.9976 55.5609ZM77.9272 54.5675H78.612C78.9291 54.5675 79.0987 54.4323 79.0987 54.1701C79.0987 53.9079 78.9307 53.7743 78.612 53.7743H77.9272V54.5675ZM79.2541 55.5088C79.2541 55.2336 79.0765 55.1033 78.7357 55.1033H77.9272V55.929H78.7357C79.0765 55.9208 79.2541 55.7857 79.2541 55.5088Z" fill="white"/>
<path d="M83.0426 55.8736V56.486H80.5791V53.2141H82.9824V53.8199H81.3115V54.5316H82.7874V55.1196H81.3115V55.8752L83.0426 55.8736Z" fill="white"/>
<path d="M83.4072 54.8477C83.4072 53.8624 84.1428 53.1572 85.1336 53.1572C85.38 53.1468 85.6254 53.1935 85.8519 53.2938C86.0783 53.3942 86.2798 53.5457 86.4414 53.737L85.9658 54.1848C85.8696 54.0647 85.7485 53.9681 85.6114 53.9019C85.4743 53.8357 85.3247 53.8016 85.1732 53.8021C85.0396 53.8021 84.9072 53.8292 84.7837 53.8817C84.6603 53.9343 84.5481 54.0113 84.4536 54.1084C84.359 54.2054 84.2841 54.3207 84.2329 54.4476C84.1818 54.5744 84.1555 54.7104 84.1555 54.8477C84.1555 54.985 84.1818 55.1209 84.2329 55.2478C84.2841 55.3746 84.359 55.4899 84.4536 55.587C84.5481 55.6841 84.6603 55.7611 84.7837 55.8136C84.9072 55.8662 85.0396 55.8932 85.1732 55.8932C85.3251 55.8935 85.4751 55.8588 85.6123 55.7917C85.7494 55.7247 85.8702 55.6269 85.9658 55.5056L86.4414 55.9535C86.28 56.1466 86.078 56.2995 85.8505 56.4005C85.6231 56.5015 85.3763 56.548 85.1288 56.5365C84.146 56.5365 83.4072 55.8346 83.4072 54.8477Z" fill="white"/>
<path d="M89.3251 53.8297H88.3074V56.486H87.5813V53.8297H86.5684V53.2141H89.3251V53.8297Z" fill="white"/>
<path d="M89.7896 53.2141H90.5204V55.3459L92.0374 53.2174H92.7286V56.486H92.001V54.3688L90.4839 56.486H89.7896V53.2141Z" fill="white"/>
<path d="M96.8534 55.8655V57.1683H96.1765V56.486H93.5181V53.2141H94.2505V55.8655H95.6677V53.2141H96.4064V55.8655H96.8534Z" fill="white"/>
<path d="M97.3398 53.2141H98.0706V55.3459L99.5877 53.2174H100.279V56.486H99.5513V54.3688L98.0342 56.486H97.3398V53.2141Z" fill="white"/>
<path d="M100.845 54.8477C100.845 53.8706 101.581 53.1572 102.589 53.1572C103.597 53.1572 104.333 53.8722 104.333 54.8477C104.333 55.8232 103.592 56.5366 102.589 56.5366C101.586 56.5366 100.845 55.8184 100.845 54.8477ZM103.58 54.8477C103.575 54.6464 103.513 54.4509 103.401 54.2857C103.289 54.1205 103.132 53.9929 102.95 53.9191C102.767 53.8452 102.568 53.8283 102.376 53.8704C102.185 53.9125 102.009 54.0118 101.872 54.1559C101.735 54.3 101.643 54.4824 101.606 54.6802C101.57 54.8781 101.591 55.0826 101.667 55.2681C101.743 55.4536 101.871 55.6119 102.035 55.7232C102.198 55.8344 102.39 55.8935 102.586 55.8933C102.719 55.897 102.852 55.8724 102.976 55.8209C103.1 55.7693 103.212 55.6921 103.306 55.5939C103.399 55.4957 103.472 55.3788 103.52 55.2504C103.567 55.122 103.588 54.9849 103.581 54.8477H103.58Z" fill="white"/>
<path d="M107.811 53.2141V56.486H107.075V55.1456H105.631V56.486H104.896V53.2141H105.631V54.5023H107.075V53.2141H107.811Z" fill="white"/>
<path d="M111.523 53.2141V56.486H110.786V55.1456H109.342V56.486H108.613V53.2141H109.348V54.5023H110.793V53.2141H111.523Z" fill="white"/>
<path d="M114.478 55.7808H113.001L112.72 56.4811H111.966L113.383 53.2141H114.111L115.537 56.4811H114.765L114.478 55.7808ZM114.245 55.2059L113.741 53.9551L113.237 55.2059H114.245Z" fill="white"/>
<path d="M118.324 53.2141V56.486H117.597V55.6179H116.924L116.362 56.486H115.588L116.251 55.5007C116.044 55.4189 115.868 55.2719 115.748 55.0807C115.628 54.8896 115.571 54.6642 115.583 54.4372C115.583 53.6766 116.114 53.219 116.955 53.219L118.324 53.2141ZM116.325 54.4225C116.325 54.8004 116.539 55.0153 116.959 55.0153H117.604V53.8297H116.978C116.552 53.8297 116.325 54.03 116.325 54.4225Z" fill="white"/>
<path d="M121.636 55.1655H121.127V56.4863H120.396V53.2144H121.127V54.532H121.653L122.49 53.2112H123.267L122.227 54.7877L123.299 56.4863H122.463L121.636 55.1655Z" fill="white"/>
<path d="M123.408 54.8477C123.408 53.8706 124.144 53.1572 125.152 53.1572C126.16 53.1572 126.896 53.8722 126.896 54.8477C126.896 55.8232 126.155 56.5366 125.152 56.5366C124.149 56.5366 123.408 55.8184 123.408 54.8477ZM126.143 54.8477C126.138 54.6465 126.076 54.451 125.964 54.2858C125.852 54.1207 125.695 53.9931 125.513 53.9192C125.331 53.8453 125.131 53.8283 124.94 53.8703C124.748 53.9123 124.573 54.0114 124.436 54.1553C124.299 54.2992 124.206 54.4815 124.17 54.6792C124.133 54.877 124.154 55.0814 124.23 55.267C124.306 55.4525 124.433 55.611 124.597 55.7224C124.76 55.8338 124.951 55.8932 125.147 55.8933C125.281 55.897 125.414 55.8724 125.538 55.8209C125.662 55.7693 125.774 55.6921 125.867 55.5939C125.961 55.4957 126.034 55.3788 126.081 55.2504C126.128 55.122 126.149 54.9849 126.143 54.8477Z" fill="white"/>
<path d="M130.35 56.486V54.5316L129.413 56.1423H129.086L128.151 54.5691V56.486H127.46V53.2141H128.069L129.259 55.2433L130.431 53.2141H131.039V56.4811L130.35 56.486Z" fill="white"/>
<path d="M134.728 53.2141V56.486H133.998V53.8297H132.561V56.486H131.831V53.2141H134.728Z" fill="white"/>
<path d="M137.672 55.7808H136.196L135.914 56.4811H135.161L136.578 53.2141H137.306L138.733 56.486H137.961L137.672 55.7808ZM137.441 55.2059L136.937 53.9551L136.433 55.2059H137.441Z" fill="white"/>
<path d="M142.062 53.2141V56.486H141.325V55.1456H139.881V56.486H139.145V53.2141H139.881V54.5023H141.325V53.2141H142.062Z" fill="white"/>
<path d="M142.854 53.2141H143.587V55.3459L145.104 53.2174H145.794V56.486H145.074V54.3688L143.557 56.486H142.854V53.2141Z" fill="white"/>
<path d="M149.131 53.2141V56.486H148.403V55.6179H147.729L147.168 56.486H146.391L147.054 55.5007C146.847 55.4189 146.671 55.2719 146.551 55.0807C146.431 54.8896 146.374 54.6642 146.387 54.4372C146.387 53.6766 146.919 53.219 147.759 53.219L149.131 53.2141ZM147.135 54.4225C147.135 54.8004 147.349 55.0153 147.769 55.0153H148.403V53.8297H147.769C147.358 53.8297 147.135 54.03 147.135 54.4225Z" fill="white"/>
</g>
<defs>
<clipPath id="clip0_242_579">
<rect width="137.908" height="50.8509" fill="white" transform="translate(12.0249 9.81885)"/>
</clipPath>
</defs>
</svg>
