<svg width="236" height="37" viewBox="0 0 236 37" fill="none" xmlns="http://www.w3.org/2000/svg">
<g clip-path="url(#clip0_242_564)">
<path d="M75.2335 9.8647H77.7174L78.2483 7.42578H69.9422L65.335 28.7446H73.6467L74.1775 26.3085H71.6539L75.2335 9.8647Z" fill="white"/>
<path d="M91.5676 7.42578H84.8569L76.5054 17.6173L80.982 28.7446H87.5678L83.0259 17.6899L91.5676 7.42578Z" fill="white"/>
<path d="M134.713 7.42578L123.48 20.4473L126.313 7.42578H120.494L115.887 28.7446H121.675L132.896 15.8405L130.106 28.7446H135.897L140.535 7.42578H134.713Z" fill="white"/>
<path d="M136.342 1.94434H126.617L125.987 4.79952H135.721L136.342 1.94434Z" fill="white"/>
<path d="M235.8 7.42578H227.494L226.957 9.8647H229.452L225.898 26.3085H223.386L222.847 28.7446H231.158L235.8 7.42578Z" fill="white"/>
<path d="M224.536 20.5227L225.634 15.4354H219.494L221.237 7.42578H215.415L210.808 28.7446H216.596L218.387 20.5227H224.536Z" fill="white"/>
<path d="M209.218 11.9935L210.206 7.42578H193.974L189.367 28.7446H205.829L206.817 24.1769H196.149L197.012 20.2126H206.751L207.691 15.8572H197.96L198.8 11.9935H209.218Z" fill="white"/>
<path d="M102.358 7.42578L89.8872 28.7446H95.9252L98.128 25.1128H106.204L106.826 28.7446H112.472L109.193 7.42578H102.358ZM100.388 20.5563L104.813 12.7897L105.895 20.5563H100.388Z" fill="white"/>
<path d="M160.276 7.42578H153.44L143.641 24.1881H140.953L139.045 33.0079H144.853L145.781 28.7446H158.399L157.477 33.0079H163.285L165.207 24.1769H162.856L160.276 7.42578ZM155.751 13.4099L157.252 24.1853H149.611L155.751 13.4099Z" fill="white"/>
<path d="M170.935 11.9933H179.826L173.706 16.1839L172.982 19.5364H178.069C179.31 19.6817 179.937 20.2153 179.937 21.14C179.93 21.3413 179.909 21.542 179.874 21.7406C179.712 22.4938 179.266 23.1586 178.625 23.6012C177.908 24.0833 177.052 24.3262 176.184 24.2941C174.481 24.2941 173.541 23.8275 173.345 22.8972C173.325 22.6807 173.325 22.4628 173.345 22.2463H167.492C167.383 22.6432 167.33 23.0532 167.336 23.4643C167.336 23.4867 167.336 23.5174 167.336 23.537C167.34 24.0309 167.43 24.5204 167.603 24.9841C167.73 25.3511 167.902 25.7018 168.114 26.029C168.634 26.8317 169.486 27.4836 170.669 27.9846C171.851 28.4856 173.356 28.7407 175.182 28.7501C176.841 28.7662 178.489 28.4919 180.05 27.9399C181.459 27.4524 182.736 26.6567 183.786 25.6127C184.76 24.6396 185.426 23.4089 185.702 22.0703C185.817 21.5572 185.879 21.034 185.887 20.5086C185.888 20.1718 185.855 19.8358 185.787 19.5057C185.642 18.6951 185.219 17.9578 184.59 17.4159C183.899 16.8526 183.091 16.4471 182.222 16.2286C181.995 16.1672 181.751 16.1169 181.504 16.0694C181.348 16.0386 181.2 15.9995 181.035 15.9744L180.922 15.9381L186.758 11.985L187.746 7.41724H171.923L170.935 11.9933Z" fill="white"/>
<path d="M1.66277 33.0945L0.799805 37.0001H47.6357L48.4873 33.0945H1.66277Z" fill="white"/>
<path d="M31.5886 0L20.1543 13.9518L24.9404 25.8475H11.1754L16.0751 3.33849H19.4758L20.2025 0H8.8335L2.52588 29.186H35.3017L29.0849 14.0496L38.0013 3.33849H46.9943H47L42.1344 25.8475H38.6939L37.9587 29.186H49.3391L55.6893 0H31.5886Z" fill="white"/>
</g>
<defs>
<clipPath id="clip0_242_564">
<rect width="235" height="37" fill="white" transform="translate(0.799805)"/>
</clipPath>
</defs>
</svg>
