<svg width="137" height="53" viewBox="0 0 137 53" fill="none" xmlns="http://www.w3.org/2000/svg">
<g clip-path="url(#clip0_242_516)">
<mask id="mask0_242_516" style="mask-type:alpha" maskUnits="userSpaceOnUse" x="-1" y="7" width="139" height="39">
<path d="M45.0215 18.0324C44.7014 18.0416 44.3813 18.0599 44.052 18.0599C43.9331 18.0599 43.8051 18.0508 43.677 18.0508C43.6222 18.0508 43.5673 18.0508 43.5033 18.0416V23.0783C43.5033 23.4912 43.5216 24.7206 43.8234 25.0508C45.0032 26.427 46.0916 25.583 46.0916 26.5004H37.915C37.915 25.2986 40.5033 27.0142 40.5033 23.0783V11.6837C40.5033 7.84883 37.915 9.06902 37.915 7.9314H44.7105C46.0276 7.9314 47.7562 7.96809 49.0184 8.36259C49.9879 8.65617 50.7836 9.21581 51.4421 9.98646C52.1281 10.803 52.4482 11.7571 52.4482 12.8214C52.4482 13.9773 52.0732 15.0049 51.3049 15.8764C50.4909 16.7939 49.3202 17.3076 48.1495 17.6104L51.6891 22.5279C52.2287 23.2802 53.0427 24.3444 53.8293 24.849C55.878 26.1701 56.3262 25.6288 56.3262 26.5096H51.1586L45.0215 18.0324ZM43.5124 16.7297C43.5856 16.7297 43.6587 16.7297 43.7319 16.7297C43.8234 16.7297 43.924 16.7388 44.0246 16.7388C45.2868 16.7388 46.741 16.5278 47.7288 15.6746C48.5519 14.9682 48.9544 14.0691 48.9544 12.9865C48.9544 11.9957 48.68 11.0966 47.9757 10.381C47.2715 9.66536 46.3569 9.39013 45.3599 9.39013C44.7654 9.39013 44.1161 9.49105 43.5215 9.60114L43.5124 16.7297Z" fill="white"/>
<path d="M130.3 20.4545H123.605L122.453 23.161C122.288 23.5555 122.014 24.216 122.014 24.6472C122.014 26.0784 124.099 25.4087 124.099 26.5005H117.962C117.962 25.7757 118.511 26.2161 119.489 25.106C120.075 24.5463 120.624 23.3169 120.944 22.5738L127.346 7.94063H128.096L134.434 22.739C136.154 26.8858 137.553 25.2069 137.553 26.5096H129.989C129.989 25.3537 131.818 26.4546 131.818 24.6839C131.818 24.1793 131.498 23.372 131.306 22.9133L130.3 20.4545ZM129.706 19.0233L126.998 12.5187L124.218 19.0233H129.706Z" fill="white"/>
<path d="M69.4326 26.5004C69.4326 24.9958 72.0209 27.1334 72.0209 23.0784V11.3535C72.0209 7.29836 69.4326 9.436 69.4326 7.9314H77.719C77.719 9.436 75.1306 7.29836 75.1306 11.3535V23.0784C75.1306 27.1334 77.719 24.9958 77.719 26.5004H69.4326Z" fill="white"/>
<path d="M102.532 18.5921V23.1334C102.532 26.7848 105.121 25.3077 105.121 26.5004H96.9442C96.9442 25.5554 98.2795 26.3995 99.2764 24.9591C99.5142 24.6105 99.5325 23.5371 99.5325 23.1334V18.9682L94.6302 11.3626C94.3101 10.8764 93.8619 10.1516 93.4595 9.73876C91.8864 8.06901 91.3284 8.86719 91.3284 7.94057H99.4685C99.4685 8.97728 97.3923 8.2892 97.3923 9.8305C97.3923 10.2158 97.9685 11.1241 98.1789 11.4452L101.728 16.9865L105.093 11.7021C107.554 7.83965 104.042 9.24334 104.042 7.9314H110.782C110.782 8.74792 110.179 7.96809 108.148 9.99564C107.663 10.5094 107.206 11.2342 106.84 11.8397L102.532 18.5921Z" fill="white"/>
<path d="M3.65351 12.0599V23.1335C3.65351 23.5463 3.67181 24.7482 3.96448 25.0784C5.13519 26.4087 6.24187 25.7757 6.24187 26.5005H-0.553711C-0.553711 25.7665 0.708457 26.4913 1.77856 24.9592C2.01636 24.6105 2.03465 23.5371 2.03465 23.1335V11.2985C2.03465 10.8214 2.00721 10.0966 1.7877 9.65625C1.65966 9.39936 1.431 9.23423 1.1932 9.10578C-0.315911 8.33513 -0.553711 8.47275 -0.553711 7.94063H4.98885L11.3546 21.794L17.6563 7.94063H23.1439C23.1439 8.95899 20.5556 8.14247 20.5556 11.3076V23.1426C20.5556 23.5647 20.5739 24.7482 20.8757 25.0784C22.0647 26.4087 23.1439 25.5555 23.1439 26.5005H14.9673C14.9673 25.6748 16.2569 26.4913 17.2996 24.9592C17.5374 24.6105 17.5557 23.5463 17.5557 23.1335V12.0691L10.9796 26.5005H10.257L3.65351 12.0599Z" fill="white"/>
<path d="M90.3773 40.1886L91.1638 41.7941L92.9382 42.051L91.6577 43.2987L91.9595 45.0694L90.3773 44.2345L88.795 45.0694L89.0968 43.2987L87.8163 42.051L89.5815 41.7941L90.3773 40.1886Z" fill="white"/>
<path d="M79.4385 40.1886L80.225 41.7941L81.9994 42.051L80.7189 43.2987L81.0207 45.0694L79.4385 44.2345L77.8562 45.0694L78.158 43.2987L76.8775 42.051L78.6427 41.7941L79.4385 40.1886Z" fill="white"/>
<path d="M68.4997 40.1886L69.2862 41.7941L71.0606 42.051L69.7801 43.2987L70.0819 45.0694L68.4997 44.2345L66.9174 45.0694L67.2192 43.2987L65.9387 42.051L67.7039 41.7941L68.4997 40.1886Z" fill="white"/>
<path d="M57.5609 40.1886L58.3475 41.7941L60.1127 42.051L58.8413 43.2987L59.1432 45.0694L57.5609 44.2345L55.9786 45.0694L56.2804 43.2987L55 42.051L56.7652 41.7941L57.5609 40.1886Z" fill="white"/>
<path d="M99.5417 42.4639V43.6657L119.023 43.0969V43.0327L99.5417 42.4639Z" fill="white"/>
<path d="M46.6221 40.1886L45.8264 41.7941L44.0612 42.051L45.3416 43.2987L45.0398 45.0694L46.6221 44.2345L48.2044 45.0694L47.9025 43.2987L49.183 42.051L47.4087 41.7941L46.6221 40.1886Z" fill="white"/>
<path d="M37.4577 42.4639V43.6657L17.9672 43.0969V43.0327L37.4577 42.4639Z" fill="white"/>
</mask>
<g mask="url(#mask0_242_516)">
<rect x="-7.80762" y="-7.87427" width="164.929" height="60.2209" fill="white"/>
</g>
</g>
<defs>
<clipPath id="clip0_242_516">
<rect width="137" height="51.2261" fill="white" transform="translate(0 0.886963)"/>
</clipPath>
</defs>
</svg>
