<svg width="167" height="67" viewBox="0 0 167 67" fill="none" xmlns="http://www.w3.org/2000/svg">
<g clip-path="url(#clip0_242_557)">
<g clip-path="url(#clip1_242_557)">
<path fill-rule="evenodd" clip-rule="evenodd" d="M129.116 18.6425C130.817 18.6425 132.329 17.1307 132.329 15.2402C132.329 13.4447 130.817 12.0269 129.116 12.0269C127.32 12.0269 125.714 13.4442 125.714 15.2402C125.714 17.1307 127.32 18.6425 129.116 18.6425ZM129.116 18.1704C127.416 18.1704 126.186 16.9419 126.186 15.2408C126.186 13.7285 127.416 12.5 129.116 12.5C129.842 12.5004 130.539 12.7893 131.053 13.3032C131.567 13.8171 131.856 14.514 131.856 15.2408C131.856 16.9419 130.628 18.1704 129.116 18.1704Z" fill="white"/>
<path fill-rule="evenodd" clip-rule="evenodd" d="M130.968 15.0905H132.135C132.622 15.0905 132.719 15.3821 132.719 15.6741C132.719 15.7718 132.719 16.3548 132.816 16.6469H133.4V16.4525C133.303 16.3548 133.206 16.3548 133.206 16.1605V15.5769C133.206 15.0905 133.012 14.9934 132.816 14.8962C133.108 14.7018 133.303 14.507 133.303 13.9239C133.303 13.2432 132.719 12.9511 132.135 12.9511H130.482V16.6474H130.968V15.0905ZM130.968 13.4375H132.135C132.427 13.4375 132.816 13.4375 132.816 14.0211C132.816 14.5075 132.427 14.6047 132.038 14.6047H130.968V13.4375ZM35.5537 11.2976H80.2941V56.1352H35.5537V11.2976ZM127.077 11.2976H82.2397V56.1352L127.077 11.2976ZM70.7713 50.3945H74.2104C79.2736 50.3945 80.2291 45.9572 80.0377 44.6754C79.7513 41.5204 77.4586 39.548 74.3058 39.548H65.899V55.4228H70.7713V50.3945ZM70.7713 46.6473V43.1962H72.8726C74.5922 43.1962 75.2608 43.5907 75.2608 44.8725C75.2608 45.4641 75.2608 46.6473 73.3504 46.6473H70.7713ZM55.2955 52.0702H60.1678L61.4096 55.4223H66.5683L60.7405 39.548H54.9132L48.9905 55.4228H53.9583L55.2955 52.0702ZM57.8751 43.9853L59.5946 48.7176H56.2515L57.8751 43.9853ZM35.8066 50.3945V51.2822C35.8066 54.4373 39.5321 55.6205 43.0671 55.6205C47.8435 55.6205 50.7099 53.8457 50.7099 50.3951C50.7099 44.8731 41.1567 46.5494 41.1567 43.2958C41.1567 42.1121 42.0167 41.718 43.354 41.718C44.2135 41.718 44.5004 41.9151 44.7867 42.1126C45.3599 42.5072 45.3599 43.0003 45.3599 43.8874H50.4231V43.4929C50.4231 41.1264 48.4167 39.1541 43.354 39.1541C37.813 39.1541 36.0935 41.3235 36.0935 43.8869C36.0935 49.5074 45.6467 47.7321 45.6467 51.1832C45.6467 51.8733 45.0735 52.8595 43.0671 52.8595C41.443 52.8595 40.8698 52.0708 40.8698 50.8871V50.3945H35.8066Z" fill="white"/>
</g>
</g>
<defs>
<clipPath id="clip0_242_557">
<rect width="166" height="67" fill="white" transform="translate(0.799805)"/>
</clipPath>
<clipPath id="clip1_242_557">
<rect width="100" height="100" fill="white" transform="translate(33.7998 -16)"/>
</clipPath>
</defs>
</svg>
